<svg width="14" height="14" viewBox="0 0 14 14" fill="none" xmlns="http://www.w3.org/2000/svg">
<rect width="13.1801" height="13.1801" fill="transparent"/>
<path d="M4.59127 0.433478C3.27437 0.89032 2.13869 1.75742 1.35102 2.90742C0.563352 4.05742 0.165225 5.4297 0.215114 6.82269C0.265004 8.21568 0.760281 9.55596 1.6282 10.6467C2.49611 11.7374 3.69092 12.521 5.03712 12.8825C6.12852 13.1641 7.27198 13.1765 8.36921 12.9185C9.36319 12.6952 10.2822 12.2177 11.0361 11.5325C11.8208 10.7977 12.3904 9.86287 12.6836 8.82857C13.0023 7.7038 13.059 6.52095 12.8494 5.37086H6.72067V7.91317H10.27C10.1991 8.31865 10.0471 8.70565 9.82309 9.05101C9.5991 9.39637 9.30773 9.693 8.96643 9.92313C8.53302 10.2098 8.04444 10.4027 7.53207 10.4895C7.0182 10.585 6.49111 10.585 5.97723 10.4895C5.4564 10.3818 4.9637 10.1668 4.53051 9.85826C3.83459 9.36564 3.31205 8.6658 3.03746 7.8586C2.75822 7.03628 2.75822 6.14478 3.03746 5.32246C3.23292 4.74606 3.55605 4.22124 3.98272 3.78719C4.47099 3.28135 5.08916 2.91977 5.7694 2.74213C6.44964 2.56448 7.16566 2.57764 7.83892 2.78015C8.36485 2.9416 8.8458 3.22368 9.24342 3.6039C9.64363 3.20575 10.0431 2.80658 10.442 2.40637C10.6479 2.19116 10.8724 1.98626 11.0752 1.7659C10.4683 1.20109 9.75588 0.761597 8.97879 0.472606C7.56369 -0.0412211 6.01531 -0.0550298 4.59127 0.433478Z" fill="white"/>
<path d="M4.59173 0.43349C6.01566 -0.0553497 7.56403 -0.0419045 8.97926 0.471589C9.75648 0.762542 10.4686 1.20415 11.0747 1.77106C10.8687 1.99142 10.6515 2.19735 10.4414 2.41153C10.0419 2.81036 9.64272 3.20783 9.24389 3.60391C8.84627 3.22369 8.36532 2.94161 7.83939 2.78016C7.16635 2.57694 6.45035 2.56303 5.76993 2.73994C5.08951 2.91686 4.47096 3.27777 3.98216 3.78308C3.55549 4.21713 3.23236 4.74195 3.0369 5.31835L0.902344 3.6657C1.66638 2.15057 2.98927 0.991608 4.59173 0.43349Z" fill="#E33629"/>
<path d="M0.335687 5.30298C0.450417 4.73438 0.640892 4.18373 0.902018 3.66577L3.03657 5.32255C2.75733 6.14487 2.75733 7.03636 3.03657 7.85868C2.3254 8.40785 1.61388 8.95977 0.902018 9.51443C0.248318 8.21322 0.0489509 6.73066 0.335687 5.30298Z" fill="#F8BD00"/>
<path d="M6.72116 5.36987H12.8499C13.0595 6.51997 13.0028 7.70282 12.6841 8.82758C12.3909 9.86189 11.8213 10.7967 11.0366 11.5316C10.3477 10.9941 9.65579 10.4607 8.96692 9.92318C9.30845 9.69281 9.59995 9.39586 9.82395 9.05013C10.0479 8.7044 10.1998 8.317 10.2705 7.91116H6.72116C6.72013 7.06475 6.72116 6.21731 6.72116 5.36987Z" fill="#587DBD"/>
<path d="M0.901367 9.51439C1.61323 8.96522 2.32475 8.4133 3.03592 7.85864C3.31106 8.66613 3.83435 9.366 4.53104 9.85831C4.96557 10.1654 5.45934 10.3786 5.98084 10.4844C6.49472 10.5799 7.02181 10.5799 7.53568 10.4844C8.04805 10.3976 8.53663 10.2047 8.97004 9.91803C9.65891 10.4555 10.3509 10.9889 11.0397 11.5264C10.2859 12.2119 9.36691 12.6898 8.37282 12.9134C7.27559 13.1714 6.13213 13.159 5.04073 12.8774C4.17754 12.6469 3.37127 12.2406 2.67244 11.684C1.93277 11.0967 1.32864 10.3567 0.901367 9.51439Z" fill="#319F43"/>
</svg>
